<?xml version="1.0" standalone="no"?>
<!DOCTYPE svg PUBLIC "-//W3C//DTD SVG 20010904//EN"
 "http://www.w3.org/TR/2001/REC-SVG-20010904/DTD/svg10.dtd">
<svg version="1.0" xmlns="http://www.w3.org/2000/svg"
 width="1000.000000pt" height="1000.000000pt" viewBox="0 0 1000.000000 1000.000000"
 preserveAspectRatio="xMidYMid meet">
<metadata>
Created by potrace 1.11, written by Peter Selinger 2001-2013
</metadata>
<g transform="translate(0.000000,1000.000000) scale(0.100000,-0.100000)"
fill="#000000" stroke="none">
<path d="M0 5000 l0 -5000 5000 0 5000 0 0 5000 0 5000 -5000 0 -5000 0 0
-5000z m7090 2410 l0 -490 -1560 -2 -1560 -3 0 -640 0 -640 1450 -3 1450 -2 0
-490 0 -490 -1452 0 -1453 0 2 -782 3 -783 1620 -3 1620 -2 0 -490 0 -490
-2210 0 -2210 0 0 2900 0 2900 2150 0 2150 0 0 -490z"/>
</g>
</svg>
