<svg height="512" viewBox="0 0 60 60" width="512" xmlns="http://www.w3.org/2000/svg"><g id="017---Chromosomes" fill="none"><g id="Layer_4" transform="translate(1)"><path id="Shape" d="m38 22c.0006331-1.2082142-.7235843-2.2988997-1.8373803-2.7671308s-2.3997823-.2226194-3.2626197.6231308c-.3878275.3953957-.6656626.8852265-.806 1.421-.257 1.036.329 6.11-3.1 12.313-1.9576135-3.5497489-2.9874298-7.5362456-2.994-11.59 0-1.6568542-1.3431458-3-3-3s-3 1.3431458-3 3c.0135625 6.0682138 1.8533724 11.991844 5.28 17-3.4266276 5.008156-5.2664375 10.9317862-5.28 17 0 1.6568542 1.3431458 3 3 3s3-1.3431458 3-3c.0084078-4.0542762 1.0402961-8.0408048 3-11.59 3.415 6.182 2.846 11.3 3.1 12.313.185758.7622015.6666913 1.4193931 1.337 1.827.9243918.5642462 2.0811377.5864715 3.0265216.0581504s1.5326307-1.5251642 1.5364784-2.6081504c-.0135625-6.0682138-1.8533724-11.991844-5.28-17 3.4266276-5.008156 5.2664375-10.9317862 5.28-17z" fill="#a4c2f7"/><path id="Shape" d="m18 4c.0006331-1.20821416-.7235843-2.29889974-1.8373803-2.76713084-1.113796-.46823109-2.3997823-.22261935-3.2626197.62313084-.3856473.39607858-.6613801.88584901-.8 1.421-.257 1.036.329 6.11-3.1 12.313-1.95970388-3.5491952-2.99159223-7.53572384-3-11.59-.00000006-1.65685421-1.34314579-2.9999999-3-2.9999999s-2.99999994 1.34314569-3 2.9999999c.01356252 6.0682138 1.85337237 11.991844 5.28 17-3.42662763 5.008156-5.26643748 10.9317862-5.28 17 0 1.6568542 1.34314575 3 3 3s3-1.3431458 3-3c.00840777-4.0542762 1.04029612-8.0408048 3-11.59 3.415 6.182 2.846 11.3 3.1 12.313.185758.7622015.6666913 1.4193931 1.337 1.827.9243918.5642462 2.0811377.5864715 3.0265216.0581504s1.5326307-1.5251642 1.5364784-2.6081504c-.0135625-6.0682138-1.8533724-11.991844-5.28-17 3.4266276-5.008156 5.2664375-10.9317862 5.28-17z" fill="#e8edfc"/><path id="Shape" d="m58 4c.0006331-1.20821416-.7235843-2.29889974-1.8373803-2.76713084-1.113796-.46823109-2.3997823-.22261935-3.2626197.62313084-.3856473.39607858-.6613801.88584901-.8 1.421-.257 1.036.329 6.11-3.1 12.313-1.9597039-3.5491952-2.9915922-7.53572384-3-11.59 0-1.65685425-1.3431458-3-3-3s-3 1.34314575-3 3c.0135625 6.0682138 1.8533724 11.991844 5.28 17-3.4266276 5.008156-5.2664375 10.9317862-5.28 17 0 1.6568542 1.3431458 3 3 3s3-1.3431458 3-3c.0084078-4.0542762 1.0402961-8.0408048 3-11.59 3.415 6.182 2.846 11.3 3.1 12.313.185758.7622015.6666913 1.4193931 1.337 1.827.9243918.5642462 2.0811377.5864715 3.0265216.0581504s1.5326307-1.5251642 1.5364784-2.6081504c-.0135625-6.0682138-1.8533724-11.991844-5.28-17 3.4266276-5.008156 5.2664375-10.9317862 5.28-17z" fill="#e8edfc"/><path id="Shape" d="m52.72 21c3.4266276 5.008156 5.2664375 10.9317862 5.28 17 .0006877 1.0721404-.5708375 2.0631514-1.4991666 2.5995194-.9283291.5363679-2.0723325.5365511-3.0008334.0004806.9287987-.5362419 1.5006876-1.527516 1.5-2.6-.0135625-6.0682138-1.8533724-11.991844-5.28-17 3.4266276-5.008156 5.2664375-10.9317862 5.28-17 .0006876-1.07248401-.5712013-2.06375811-1.5-2.6.9285009-.53607053 2.0725043-.5358873 3.0008334.00048064.9283291.53636793 1.4998543 1.52737896 1.4991666 2.59951936-.0135625 6.0682138-1.8533724 11.991844-5.28 17z" fill="#cad9fc"/><path id="Shape" d="m30 4.5c-.0001964 1.7285362-1.2649672 3.19682479-2.9744103 3.45303113s-3.3490969-.77677558-3.8560374-2.42930358c-.5069405-1.65252799.2713976-3.42726918 1.8304477-4.17372755 1.0825167-.51052068 2.3507018-.43337602 3.3633549.20459542s1.6297657 1.74856437 1.6366451 2.94540458z" fill="#e8edfc"/><circle id="Oval" cx="34.5" cy="11.5" fill="#cad9fc" r="2.5"/><path id="Shape" d="m14 49.5c-.0001964 1.7285362-1.2649672 3.1968248-2.9744103 3.4530311-1.70944308.2562064-3.34909692-.7767755-3.8560374-2.4293035-.50694047-1.652528.27139757-3.4272692 1.8304477-4.1737276 1.0825167-.5105207 2.3507018-.433376 3.3633549.2045954 1.0126531.6379715 1.6297657 1.7485644 1.6366451 2.9454046z" fill="#e8edfc"/><circle id="Oval" cx="2.5" cy="56.5" fill="#cad9fc" r="2.5"/><path id="Shape" d="m52 47.5c-.0001964 1.7285362-1.2649672 3.1968248-2.9744103 3.4530311-1.7094431.2562064-3.3490969-.7767755-3.8560374-2.4293035s.2713976-3.4272692 1.8304477-4.1737276c1.0825167-.5105207 2.3507018-.433376 3.3633549.2045954 1.0126531.6379715 1.6297657 1.7485644 1.6366451 2.9454046z" fill="#cad9fc"/><path id="Shape" d="m47 50.65c-1.2190528-.5751605-1.9968005-1.8020759-1.9968005-3.15s.7777477-2.5748395 1.9968005-3.15c1.2190528.5751605 1.9968005 1.8020759 1.9968005 3.15s-.7777477 2.5748395-1.9968005 3.15z" fill="#e8edfc"/><circle id="Oval" cx="54.5" cy="56.5" fill="#cad9fc" r="2.5"/></g><g id="Layer_3" fill="#fff" transform="translate(0 1)"><path id="Shape" d="m3.5 58c.54240406-.0018552 1.06926802-.1813402 1.5-.511-.62916947-.4675147-1.00004093-1.2051478-1.00004093-1.989s.37087146-1.5214853 1.00004093-1.989c-.86861378-.6613817-2.06594265-.6826292-2.95747556-.0524826s-1.271056 1.7659327-.93744526 2.8054612 1.3031903 1.7423538 2.39492082 1.7360214z"/><path id="Shape" d="m4 40c.52797358-.0027317 1.04570227-.14597 1.5-.415-.92687684-.5308381-1.49904588-1.516876-1.5-2.585.01356252-6.0682138 1.85337237-11.991844 5.28-17-3.42662763-5.008156-5.26643748-10.93178616-5.28-17 .00095412-1.06812397.57312316-2.05416194 1.5-2.585-.92462507-.54686784-2.07192674-.55414815-3.00341748-.01905847-.93149073.53508968-1.50318336 1.52983671-1.49658252 2.60405847.01356252 6.06821384 1.85337237 11.991844 5.28 17-3.42662763 5.008156-5.26643748 10.9317862-5.28 17 0 1.6568542 1.34314575 3 3 3z"/><path id="Shape" d="m10 51.65c.4651301.2340774.9793064.3540519 1.5.35.5200809-.0023075 1.0328936-.1223057 1.5-.351-1.220441-.5739972-1.9994937-1.8013158-1.9994937-3.15s.7790527-2.5760028 1.9994937-3.15c-.4674199-.227578-.9801264-.3468677-1.5-.349-.5206936-.0040519-1.0348699.1159226-1.5.35-1.22044104.5739972-1.99949367 1.8013158-1.99949367 3.15s.77905263 2.5760028 1.99949367 3.15z"/></g><g id="Layer_2" fill="#428dff"><path id="Shape" d="m20 22c.0210735 6.0371719 1.7839353 11.9399987 5.077 17-3.2930647 5.0600013-5.0559265 10.9628281-5.077 17 0 2.209139 1.790861 4 4 4s4-1.790861 4-4c.004228-3.2220459.6856236-6.4072297 2-9.349 1.3139212 2.9419188 1.9952959 6.1270048 2 9.349 0 2.209139 1.790861 4 4 4s4-1.790861 4-4c-.0210735-6.0371719-1.7839353-11.9399987-5.077-17 3.2930647-5.0600013 5.0559265-10.9628281 5.077-17 0-2.209139-1.790861-4-4-4s-4 1.790861-4 4c-.0047041 3.2219952-.6860788 6.4070812-2 9.349-1.3143764-2.9417703-1.995772-6.1269541-2-9.349 0-2.209139-1.790861-4-4-4s-4 1.790861-4 4zm14 0c0-1.1045695.8954305-2 2-2s2 .8954305 2 2c-.0192778 5.8646028-1.7956953 11.5888469-5.1 16.434-.2341263.3410159-.2341263.7909841 0 1.132 3.3044722 4.8450722 5.080906 10.569369 5.1 16.434 0 1.1045695-.8954305 2-2 2s-2-.8954305-2-2c-.0080023-4.1302162-1.0386786-8.1941729-3-11.829v-10.342c1.9613214-3.6348271 2.9919977-7.6987838 3-11.829zm-10-2c1.1045695 0 2 .8954305 2 2 .0080023 4.1302162 1.0386786 8.1941729 3 11.829v10.342c-1.9613214 3.6348271-2.9919977 7.6987838-3 11.829 0 1.1045695-.8954305 2-2 2s-2-.8954305-2-2c.0186034-5.8647062 1.7950809-11.5891435 5.1-16.434.2341263-.3410159.2341263-.7909841 0-1.132-3.3047515-4.8449374-5.0812126-10.569322-5.1-16.434 0-1.1045695.8954305-2 2-2z"/><path id="Shape" d="m4 42c2.209139 0 4-1.790861 4-4 .00422797-3.2220459.68562359-6.4072297 2-9.349 1.3139212 2.9419188 1.9952959 6.1270048 2 9.349 0 2.209139 1.790861 4 4 4s4-1.790861 4-4c-.0210735-6.0371719-1.7839353-11.9399987-5.077-17 3.2930647-5.0600013 5.0559265-10.9628281 5.077-17 0-2.209139-1.790861-4-4-4s-4 1.790861-4 4c-.0047041 3.2219952-.6860788 6.4070812-2 9.349-1.31437641-2.9417703-1.99577203-6.1269541-2-9.349-.00000005-2.20913897-1.79086103-3.99999992-4-3.99999992s-3.99999995 1.79086095-4 3.99999992c.02107348 6.0371719 1.78393535 11.9399987 5.077 17-3.29306465 5.0600013-5.05592652 10.9628281-5.077 17 0 1.060866.42142736 2.0782816 1.17157288 2.8284271.75014551.7501455 1.76756116 1.1715729 2.82842712 1.1715729zm10-38c0-1.1045695.8954305-2 2-2s2 .8954305 2 2c-.0192778 5.86460282-1.7956953 11.5888469-5.1 16.434-.2341263.3410159-.2341263.7909841 0 1.132 3.3044722 4.8450722 5.080906 10.569369 5.1 16.434 0 1.1045695-.8954305 2-2 2s-2-.8954305-2-2c-.0080023-4.1302162-1.0386786-8.1941729-3-11.829v-10.342c1.9613214-3.6348271 2.9919977-7.69878377 3-11.829zm-6.9 17.566c.23412635-.3410159.23412635-.7909841 0-1.132-3.30475149-4.8449374-5.08121259-10.56932202-5.1-16.434.00000002-1.10456949.89543051-1.99999997 2-1.99999997s1.99999998.89543048 2 1.99999997c.00800226 4.13021623 1.03867855 8.1941729 3 11.829v10.342c-1.96132145 3.6348271-2.99199774 7.6987838-3 11.829 0 1.1045695-.8954305 2-2 2s-2-.8954305-2-2c.01860343-5.8647062 1.79508089-11.5891435 5.1-16.434z"/><path id="Shape" d="m56 0c-2.209139 0-4 1.790861-4 4-.0047041 3.2219952-.6860788 6.4070812-2 9.349-1.3143764-2.9417703-1.995772-6.1269541-2-9.349 0-2.209139-1.790861-4-4-4s-4 1.790861-4 4c.0210735 6.0371719 1.7839353 11.9399987 5.077 17-3.2930647 5.0600013-5.0559265 10.9628281-5.077 17 0 2.209139 1.790861 4 4 4s4-1.790861 4-4c.004228-3.2220459.6856236-6.4072297 2-9.349 1.3139212 2.9419188 1.9952959 6.1270048 2 9.349 0 2.209139 1.790861 4 4 4s4-1.790861 4-4c-.0210735-6.0371719-1.7839353-11.9399987-5.077-17 3.2930647-5.0600013 5.0559265-10.9628281 5.077-17 0-1.06086596-.4214274-2.07828161-1.1715729-2.82842712-.7501455-.75014552-1.7675611-1.17157288-2.8284271-1.17157288zm-10 38c0 1.1045695-.8954305 2-2 2s-2-.8954305-2-2c.0186034-5.8647062 1.7950809-11.5891435 5.1-16.434.2341263-.3410159.2341263-.7909841 0-1.132-3.3047515-4.8449374-5.0812126-10.56932202-5.1-16.434 0-1.1045695.8954305-2 2-2s2 .8954305 2 2c.0080023 4.13021623 1.0386786 8.1941729 3 11.829v10.342c-1.9613214 3.6348271-2.9919977 7.6987838-3 11.829zm6.9-17.566c-.2341263.3410159-.2341263.7909841 0 1.132 3.3044722 4.8450722 5.080906 10.569369 5.1 16.434 0 1.1045695-.8954305 2-2 2s-2-.8954305-2-2c-.0080023-4.1302162-1.0386786-8.1941729-3-11.829v-10.342c1.9613214-3.6348271 2.9919977-7.69878377 3-11.829 0-1.1045695.8954305-2 2-2s2 .8954305 2 2c-.0192778 5.86460282-1.7956953 11.5888469-5.1 16.434z"/><path id="Shape" d="m27.5 0c-2.4852814 0-4.5 2.01471863-4.5 4.5s2.0147186 4.5 4.5 4.5 4.5-2.01471863 4.5-4.5c-.0027556-2.48413909-2.0158609-4.49724444-4.5-4.5zm0 7c-1.3807119 0-2.5-1.11928813-2.5-2.5s1.1192881-2.5 2.5-2.5 2.5 1.11928813 2.5 2.5c0 .66304122-.2633921 1.29892601-.732233 1.76776695-.468841.46884095-1.1047258.73223305-1.767767.73223305z"/><path id="Shape" d="m35.5 15c1.9329966 0 3.5-1.5670034 3.5-3.5 0-1.93299662-1.5670034-3.5-3.5-3.5s-3.5 1.56700338-3.5 3.5c0 1.9329966 1.5670034 3.5 3.5 3.5zm0-5c.8284271 0 1.5.6715729 1.5 1.5s-.6715729 1.5-1.5 1.5-1.5-.6715729-1.5-1.5.6715729-1.5 1.5-1.5z"/><path id="Shape" d="m11.5 45c-2.48528137 0-4.5 2.0147186-4.5 4.5s2.01471863 4.5 4.5 4.5c2.4852814 0 4.5-2.0147186 4.5-4.5-.0027556-2.4841391-2.0158609-4.4972444-4.5-4.5zm0 7c-1.3807119 0-2.5-1.1192881-2.5-2.5s1.1192881-2.5 2.5-2.5 2.5 1.1192881 2.5 2.5c0 .6630412-.2633921 1.298926-.732233 1.767767-.468841.4688409-1.1047258.732233-1.767767.732233z"/><path id="Shape" d="m3.5 60c1.93299662 0 3.5-1.5670034 3.5-3.5s-1.56700338-3.5-3.5-3.5-3.5 1.5670034-3.5 3.5 1.56700338 3.5 3.5 3.5zm0-5c.82842712 0 1.5.6715729 1.5 1.5s-.67157288 1.5-1.5 1.5-1.5-.6715729-1.5-1.5.67157288-1.5 1.5-1.5z"/><path id="Shape" d="m49.5 43c-2.4852814 0-4.5 2.0147186-4.5 4.5s2.0147186 4.5 4.5 4.5 4.5-2.0147186 4.5-4.5c-.0027556-2.4841391-2.0158609-4.4972444-4.5-4.5zm0 7c-1.3807119 0-2.5-1.1192881-2.5-2.5s1.1192881-2.5 2.5-2.5 2.5 1.1192881 2.5 2.5-1.1192881 2.5-2.5 2.5z"/><path id="Shape" d="m55.5 60c1.9329966 0 3.5-1.5670034 3.5-3.5s-1.5670034-3.5-3.5-3.5-3.5 1.5670034-3.5 3.5c0 .9282577.3687489 1.8184964 1.0251263 2.4748737.6563773.6563774 1.546616 1.0251263 2.4748737 1.0251263zm0-5c.8284271 0 1.5.6715729 1.5 1.5s-.6715729 1.5-1.5 1.5-1.5-.6715729-1.5-1.5.6715729-1.5 1.5-1.5z"/></g></g></svg>