<svg id="Layer_1" enable-background="new 0 0 512 512" height="" viewBox="0 0 512 512" width="" xmlns="http://www.w3.org/2000/svg"><g><path d="m256 512c-3.839 0-7.678-1.464-10.606-4.394l-241-241c-5.858-5.858-5.858-15.355 0-21.213l241-241c5.857-5.858 15.355-5.858 21.213 0l241 241c5.858 5.858 5.858 15.355 0 21.213l-241 241c-2.929 2.93-6.768 4.394-10.607 4.394z" fill="#ffcd00"/><path d="m507.607 266.607c5.858-5.858 5.858-15.355 0-21.213l-241-241c-2.929-2.929-6.768-4.394-10.607-4.394v512c3.839 0 7.678-1.464 10.606-4.394z" fill="#ff9600"/><path d="m379.073 213.261-32.134-32.133c-5.857-5.858-15.355-5.858-21.213 0s-5.858 15.355 0 21.213l5.46 5.46-5.517 5.516c-2.754 2.729-7.663 3.156-10.871-.064l-36.83-36.798c-9.968-10.033-23.831-15.788-38.035-15.788-14.186 0-28.031 5.739-37.996 15.748l-46.279 46.256c-11.642 11.649-27.773 18.329-44.257 18.329-8.284 0-15 6.716-15 15s6.716 15 15 15c24.385 0 48.25-9.886 65.471-27.117l6.742-6.737 3.54 14.257c5.125 20.273 22.824 34.639 43.483 35.608l28.015 56.031c2.54 5.082 7.734 8.292 13.416 8.292h48.2c8.284 0 15-6.716 15-15s-6.716-15-15-15h-38.93l-18.188-36.374c8.928-1.622 17.663-4.165 26.05-7.56v2.7c0 8.284 6.716 15 15 15s15-6.716 15-15v-19.682c4.786-3.612 9.335-7.553 13.59-11.819l9.749-9.732h25.928c6.066 0 11.536-3.655 13.858-9.26s1.039-12.056-3.252-16.346z" fill="#403b40"/><path d="m272.067 351.334h48.2c8.284 0 15-6.716 15-15s-6.716-15-15-15h-38.93l-18.187-36.374c8.928-1.622 17.663-4.165 26.05-7.56v2.7c0 8.284 6.716 15 15 15s15-6.716 15-15v-19.682c4.786-3.612 9.335-7.553 13.59-11.819l9.749-9.732h25.928c6.066 0 11.536-3.655 13.858-9.26 2.321-5.605 1.038-12.057-3.252-16.347l-32.134-32.133c-5.857-5.858-15.355-5.858-21.213 0s-5.858 15.355 0 21.213l5.46 5.46-5.517 5.516c-2.754 2.729-7.663 3.156-10.871-.064l-36.83-36.798c-6.126-6.166-13.726-10.708-21.969-13.299v174.585l2.65 5.301c2.542 5.083 7.736 8.293 13.418 8.293z" fill="#2e2e2e"/></g></svg>